<svg xmlns="http://www.w3.org/2000/svg" width="55.628" height="66.985" viewBox="0 0 55.628 66.985">
  <path id="Shape" d="M1263.385,862.808l24.584-9.5-7.625-6.244c2.095-2.313,3.128-5.467,3.352-9.814.276-5.391,1.955-7.439,7.187-8.773,7.844-2,12.03-7.112,12.444-15.192.3-5.752,2.071-7.213,6.92-8.45,3.885-.99,6.783-2.645,8.767-5.051l-4.841-3.966c-1.126,1.356-2.847,2.229-5.38,2.873-7.943,2.025-11.354,6.189-11.777,14.379-.267,5.2-2.536,7.974-7.588,9.262-7.91,2.017-11.625,6.553-12.044,14.7-.154,3-.616,4.807-1.891,6.055l-7.637-6.256Z" transform="translate(-1263.385 -795.822)" fill="#fffa78"/>
</svg>
