<svg xmlns="http://www.w3.org/2000/svg" width="108.013" height="68.001" viewBox="0 0 108.013 68.001">
  <path id="Shape" d="M1397.215,351.988c-11.471,2.639-18.793-.627-24.486-10.924-3.712-6.716-8.49-8.846-15.97-7.125-11.364,2.612-18.3-.482-23.938-10.68-3.753-6.791-7.576-8.5-15.145-6.756l-.937-4.171c9.2-2.113,15.071.256,19.815,8.84,4.473,8.092,9.182,10.915,19.267,8.6,9.563-2.2,16.106,1.009,20.641,9.208,4.655,8.421,10.068,11.085,19.816,8.841,9.567-2.2,14.246-.113,18.99,8.472l-3.734,2.087C1407.721,351.471,1404.908,350.218,1397.215,351.988Zm4.742-10.616c-11.471,2.641-18.793-.626-24.486-10.923-3.711-6.716-8.489-8.849-15.97-7.125-11.364,2.613-18.3-.482-23.938-10.68-3.753-6.79-7.576-8.5-15.145-6.755l-.937-4.173c9.2-2.115,15.071.256,19.816,8.841,4.473,8.091,9.181,10.914,19.267,8.595,9.563-2.2,16.106,1.01,20.641,9.21,4.655,8.421,10.068,11.084,19.816,8.841,9.567-2.2,14.246-.113,18.99,8.471l-3.734,2.088C1412.463,340.857,1409.65,339.6,1401.957,341.372Zm-70.143-9.585c4.472,8.093,9.182,10.914,19.267,8.6,9.563-2.2,16.106,1.01,20.641,9.209,4.654,8.424,10.067,11.087,19.815,8.84,9.567-2.2,14.246-.113,18.99,8.473l-3.734,2.087c-3.815-6.9-6.627-8.155-14.319-6.388-11.471,2.64-18.794-.623-24.486-10.924-3.712-6.715-8.491-8.845-15.97-7.125-11.365,2.616-18.3-.478-23.938-10.679-3.753-6.791-7.576-8.5-15.145-6.757l-.937-4.17C1321.194,320.834,1327.069,323.2,1331.813,331.787Z" transform="translate(-1311.998 -300.989)" fill="#7bffaa"/>
</svg>
