<svg xmlns="http://www.w3.org/2000/svg" width="92.001" height="64.997" viewBox="0 0 92.001 64.997">
  <path id="Shape" d="M586.628,738.165A1.222,1.222,0,0,1,585,739.321l-9.426-1.966c-.805-.173-1.674-.465-1.847.5l-1.615,8.35c-.146.864-.637,1.531-1.633,1.155l-9.428-1.964c-.863-.14-1.787-.247-1.957.711l-1.616,8.353c-.146.864-.637,1.53-1.633,1.154l-9.426-1.966c-.805-.173-1.729-.278-1.96.714l-1.806,9.117a1.179,1.179,0,0,1-1.428.536l-9.427-1.965c-.8-.173-1.674-.465-1.847.494l-1.615,8.35c-.146.865-.637,1.532-1.633,1.156l-9.428-1.965c-.864-.141-1.787-.246-1.957.71l-1.616,8.354c-.146.865-.637,1.532-1.633,1.156l-9.426-1.965c-.805-.174-1.729-.28-1.96.712l-2.671,13.486,1.931,3.454,1.366-7.11c.17-.958,1.245-.862,1.956-.714l9.428,1.966c.991.225,1.394-.316,1.572-1.123l1.676-8.383c.146-.865,1.247-.862,1.9-.682l9.426,1.966a1.22,1.22,0,0,0,1.633-1.154l1.618-8.35c.17-.959,1.247-.862,1.956-.714l9.429,1.964c.991.227,1.394-.316,1.572-1.121l1.783-8.682c.357-.549,1.182-.5,1.783-.379l9.428,1.966c.991.227,1.394-.315,1.572-1.122l1.676-8.383c.146-.865,1.247-.862,1.9-.681l9.426,1.966a1.222,1.222,0,0,0,1.633-1.155l1.618-8.35c.17-.958,1.247-.862,1.956-.715l9.428,1.966c.991.226,1.394-.315,1.572-1.121l2.765-13.462-1.9-3.392Z" transform="translate(-498.009 -730.987)" fill="#6f43d6"/>
</svg>
